<svg width="32" height="32" viewBox="0 0 32 32" fill="none" xmlns="http://www.w3.org/2000/svg">
<path opacity="0.4" d="M10.4134 2.66675H21.5734C26.4401 2.66675 29.3334 5.56008 29.3334 10.4134V21.5734C29.3334 26.4267 26.4401 29.3201 21.5867 29.3201H10.4134C5.56008 29.3334 2.66675 26.4401 2.66675 21.5867V10.4134C2.66675 5.56008 5.56008 2.66675 10.4134 2.66675Z" fill="#37D67A"/>
<path d="M23.5866 17.9734C23.4811 17.7279 23.2855 17.5322 23.0399 17.4267C22.918 17.3735 22.7863 17.3462 22.6533 17.3467H9.33325C8.78659 17.3467 8.33325 17.8001 8.33325 18.3467C8.33325 18.8934 8.78659 19.3467 9.33325 19.3467H20.2533L18.0266 21.5734C17.6399 21.9601 17.6399 22.6001 18.0266 22.9867C18.2266 23.1867 18.4799 23.2801 18.7333 23.2801C18.9866 23.2801 19.2399 23.1867 19.4399 22.9867L23.3733 19.0534C23.4666 18.9601 23.5333 18.8534 23.5866 18.7334C23.6933 18.4801 23.6933 18.2134 23.5866 17.9734ZM8.41325 14.0267C8.51992 14.2667 8.70659 14.4667 8.95992 14.5734C9.07992 14.6267 9.19992 14.6534 9.33325 14.6534H22.6666C23.2133 14.6534 23.6666 14.2001 23.6666 13.6534C23.6666 13.1067 23.2133 12.6534 22.6666 12.6534H11.7466L13.9733 10.4267C14.3599 10.0401 14.3599 9.40008 13.9733 9.01341C13.7851 8.82744 13.5312 8.72314 13.2666 8.72314C13.002 8.72314 12.7481 8.82744 12.5599 9.01341L8.62659 12.9467C8.53325 13.0401 8.46659 13.1467 8.41325 13.2667C8.30659 13.5201 8.30659 13.7867 8.41325 14.0267Z" fill="#37D67A"/>
</svg>
