<svg width="32" height="32" viewBox="0 0 32 32" fill="none" xmlns="http://www.w3.org/2000/svg">
<path d="M26.8399 5.51994C26.4149 5.53494 26.0249 5.75994 25.7999 6.11994L13.7599 24.5399L5.95988 17.7999C5.62488 17.4524 5.12238 17.3224 4.65988 17.4674C4.19988 17.6099 3.85738 17.9999 3.77738 18.4749C3.69738 18.9524 3.88988 19.4324 4.27988 19.7199L13.1999 27.4399C13.4799 27.6774 13.8499 27.7824 14.2124 27.7299C14.5774 27.6749 14.8999 27.4674 15.0999 27.1599L27.9599 7.51994C28.2349 7.11744 28.2574 6.59744 28.0199 6.17244C27.7824 5.74994 27.3249 5.49744 26.8399 5.51994Z" fill="#37D67A"/>
</svg>
