<svg width="28" height="28" viewBox="0 0 28 28" fill="none" xmlns="http://www.w3.org/2000/svg">
<path d="M27.074 11.3887H26V11.3333H14V16.6667H21.5354C20.436 19.7713 17.482 22 14 22C9.58202 22 6.00002 18.418 6.00002 14C6.00002 9.582 9.58202 6 14 6C16.0394 6 17.8947 6.76934 19.3074 8.026L23.0787 4.25467C20.6974 2.03534 17.512 0.666672 14 0.666672C6.63669 0.666672 0.666687 6.63667 0.666687 14C0.666687 21.3633 6.63669 27.3333 14 27.3333C21.3634 27.3333 27.3334 21.3633 27.3334 14C27.3334 13.106 27.2414 12.2333 27.074 11.3887Z" fill="#FFC107"/>
<path d="M2.20398 7.79401L6.58465 11.0067C7.76998 8.07201 10.6406 6.00001 14 6.00001C16.0393 6.00001 17.8946 6.76934 19.3073 8.02601L23.0786 4.25467C20.6973 2.03534 17.512 0.666672 14 0.666672C8.87865 0.666672 4.43731 3.55801 2.20398 7.79401Z" fill="#FF3D00"/>
<path d="M14 27.3333C17.444 27.3333 20.5733 26.0153 22.9393 23.872L18.8127 20.38C17.429 21.4323 15.7383 22.0014 14 22C10.532 22 7.58734 19.7887 6.47801 16.7027L2.13 20.0527C4.33667 24.3707 8.81801 27.3333 14 27.3333Z" fill="#4CAF50"/>
<path d="M27.074 11.3887H26V11.3333H14V16.6667H21.5353C21.0095 18.1443 20.0622 19.4354 18.8107 20.3807L18.8127 20.3793L22.9393 23.8713C22.6473 24.1367 27.3333 20.6667 27.3333 14C27.3333 13.106 27.2413 12.2333 27.074 11.3887Z" fill="#1976D2"/>
</svg>
