<svg width="32" height="32" viewBox="0 0 32 32" fill="none" xmlns="http://www.w3.org/2000/svg">
<path d="M29.3334 29.3334L26.6668 26.6668M15.3334 28.0001C16.9968 28.0001 18.6439 27.6725 20.1807 27.0359C21.7175 26.3993 23.1139 25.4663 24.2901 24.2901C25.4663 23.1139 26.3993 21.7175 27.0359 20.1807C27.6725 18.6439 28.0001 16.9968 28.0001 15.3334C28.0001 13.67 27.6725 12.0229 27.0359 10.4861C26.3993 8.9493 25.4663 7.55294 24.2901 6.37673C23.1139 5.20052 21.7175 4.2675 20.1807 3.63094C18.6439 2.99438 16.9968 2.66675 15.3334 2.66675C11.974 2.66675 8.75219 4.00127 6.37673 6.37673C4.00127 8.75219 2.66675 11.974 2.66675 15.3334C2.66675 18.6928 4.00127 21.9146 6.37673 24.2901C8.75219 26.6656 11.974 28.0001 15.3334 28.0001Z" stroke="#848484" stroke-width="1.5" stroke-linecap="round" stroke-linejoin="round"/>
</svg>
