<svg width="32" height="32" viewBox="0 0 32 32" fill="none" xmlns="http://www.w3.org/2000/svg">
<path d="M29.3334 29.3333L26.6668 26.6666M15.3334 28C16.9968 28 18.6439 27.6723 20.1807 27.0358C21.7175 26.3992 23.1139 25.4662 24.2901 24.29C25.4663 23.1138 26.3993 21.7174 27.0359 20.1806C27.6725 18.6438 28.0001 16.9967 28.0001 15.3333C28.0001 13.6699 27.6725 12.0228 27.0359 10.486C26.3993 8.94918 25.4663 7.55282 24.2901 6.37661C23.1139 5.2004 21.7175 4.26738 20.1807 3.63082C18.6439 2.99426 16.9968 2.66663 15.3334 2.66663C11.974 2.66663 8.75219 4.00115 6.37673 6.37661C4.00127 8.75207 2.66675 11.9739 2.66675 15.3333C2.66675 18.6927 4.00127 21.9145 6.37673 24.29C8.75219 26.6654 11.974 28 15.3334 28Z" stroke="#848484" stroke-width="2.5" stroke-linecap="round" stroke-linejoin="round"/>
</svg>
